<svg width="105" height="24" viewBox="0 0 105 24" fill="none" xmlns="http://www.w3.org/2000/svg">
<path d="M16.0868 8.981H11.4988V0H16.0868C18.5628 0 20.5768 2.014 20.5768 4.49C20.5768 6.966 18.5628 8.981 16.0868 8.981ZM12.9698 7.51H16.0868C17.7518 7.51 19.1058 6.155 19.1058 4.491C19.1058 2.827 17.7508 1.472 16.0868 1.472H12.9698V7.51ZM12.9698 8.981H8.38281C5.90681 8.981 3.89282 6.967 3.89282 4.491C3.89282 2.015 5.90681 0 8.38281 0H12.9708V8.981H12.9698ZM8.38281 1.471C6.71781 1.471 5.36382 2.826 5.36382 4.49C5.36382 6.154 6.71781 7.51 8.38281 7.51H11.4998V1.471H8.38281ZM12.9698 16.49H8.38281C5.90681 16.49 3.89282 14.476 3.89282 12C3.89282 9.524 5.90681 7.51 8.38281 7.51H12.9708V16.49H12.9698ZM8.38281 8.981C6.71781 8.981 5.36382 10.336 5.36382 12C5.36382 13.664 6.71881 15.019 8.38281 15.019H11.4998V8.981H8.38281ZM8.40682 24C5.91781 24 3.89182 21.986 3.89182 19.51C3.89182 17.034 5.90582 15.02 8.38182 15.02H12.9698V19.461C12.9698 21.964 10.9228 24 8.40682 24ZM8.38281 16.49C7.58245 16.4911 6.81517 16.8095 6.24923 17.3754C5.68329 17.9414 5.36487 18.7086 5.36382 19.509C5.36382 21.174 6.72882 22.528 8.40782 22.528C10.1128 22.528 11.5008 21.152 11.5008 19.46V16.49H8.38281ZM16.0868 16.49H15.9888C13.5128 16.49 11.4988 14.476 11.4988 12C11.4988 9.524 13.5128 7.51 15.9888 7.51H16.0868C18.5628 7.51 20.5768 9.524 20.5768 12C20.5768 14.476 18.5628 16.49 16.0868 16.49ZM15.9898 8.981C14.3248 8.981 12.9708 10.336 12.9708 12C12.9708 13.664 14.3258 15.019 15.9898 15.019H16.0878C17.7528 15.019 19.1068 13.664 19.1068 12C19.1068 10.336 17.7508 8.981 16.0868 8.981H15.9898Z" fill="#818898"/>
<g clip-path="url(#clip0_1_22834)">
<path d="M36.2343 0.00137143V18.731L38.7049 18.7378V9.81943H44.6617V7.46057H38.7049V2.35749H46.4631V0L36.2343 0.00137143ZM50.9092 3.80297C51.7993 3.80297 52.5207 3.09943 52.5207 2.23131C52.5207 1.3632 51.8 0.659657 50.9092 0.659657C50.0199 0.659657 49.2978 1.3632 49.2978 2.23131C49.2978 3.09943 50.0199 3.80297 50.9092 3.80297ZM49.653 6.16114V18.7337H52.1236V6.16114H49.653Z" fill="#818898"/>
<path fill-rule="evenodd" clip-rule="evenodd" d="M61.2855 5.79443C58.0043 5.79443 55.7147 8.50095 55.7147 11.7142C55.7147 14.9281 58.005 17.6347 61.2855 17.6347C62.7872 17.6347 64.0249 17.0676 64.9266 16.1439V17.8177C64.9266 19.9009 63.2487 21.6427 61.0592 21.6427C60.272 21.6427 59.4903 21.3451 58.867 20.9261L57.6292 23.0175C58.6569 23.6623 59.846 24.003 61.0592 24.0001C64.5591 24.0001 67.3966 21.2326 67.3966 17.8177V6.16061H64.9259V7.28518C64.0249 6.36152 62.7879 5.79443 61.2855 5.79443ZM58.1854 11.7142C58.1854 9.71946 59.7488 8.15192 61.5529 8.15192C63.357 8.15192 64.9218 9.71946 64.9218 11.7142C64.9218 13.7089 63.357 15.2772 61.5529 15.2772C59.7495 15.2772 58.1854 13.7089 58.1854 11.7142Z" fill="#818898"/>
<path d="M76.2996 8.15192C74.8383 8.15192 73.6541 9.35946 73.6541 10.7851V18.7339H71.1835V6.16129H73.6541V7.31329C74.3775 6.39992 75.4438 5.79443 76.8358 5.79443C78.5672 5.79443 79.8962 6.63306 80.6655 7.91672C81.5213 6.67695 82.9174 5.79443 84.5967 5.79443C87.4088 5.79443 89.1588 8.00723 89.1759 10.7453V18.7339H86.7053V10.7844C86.7053 9.35946 85.5211 8.15123 84.0598 8.15123C82.5992 8.15123 81.415 9.35946 81.415 10.7844V18.7345H78.9444V10.7844C78.9444 9.35946 77.7602 8.15123 76.2989 8.15123" fill="#818898"/>
<path fill-rule="evenodd" clip-rule="evenodd" d="M102.333 7.5862C101.234 6.48015 99.7295 5.79443 97.983 5.79443C94.3076 5.79443 91.6991 8.83009 91.6991 12.4479C91.6991 16.0657 94.3076 19.1014 97.983 19.1014C99.7288 19.1014 101.234 18.4164 102.333 17.3096V18.7345H104.804V6.16129H102.333V7.5862ZM94.1697 12.4479C94.1697 10.0479 96.0541 8.15192 98.2511 8.15192C100.449 8.15192 102.333 10.0479 102.333 12.4479C102.333 14.8479 100.449 16.7439 98.2511 16.7439C96.0534 16.7439 94.1697 14.8486 94.1697 12.4479Z" fill="#818898"/>
</g>
<defs>
<clipPath id="clip0_1_22834">
<rect width="68.5714" height="24" fill="white" transform="translate(36.2348)"/>
</clipPath>
</defs>
</svg>
