<svg width="165" height="28" viewBox="0 0 165 28" fill="none" xmlns="http://www.w3.org/2000/svg">
<g clip-path="url(#clip0_1_23004)">
<path d="M19.85 25.0966C19.3025 25.8316 18.5807 26.2211 17.7595 26.4496C16.9146 26.6843 16.0449 26.7653 15.1837 26.6403C14.5272 26.5451 13.8895 26.3178 13.2451 26.1433C11.1201 25.5691 8.99398 24.9998 6.87223 24.4144C5.2751 23.9735 4.17095 22.95 3.46518 21.4695C2.84677 20.1717 2.51893 18.783 2.17466 17.3991C1.7827 15.8236 1.38031 14.2522 0.910195 12.6967C0.507408 11.3649 0.462521 10.0311 1.18152 8.76226C1.54383 8.12341 2.02637 7.58196 2.54819 7.07539C3.3245 6.32191 4.11083 5.57926 4.89798 4.83741C5.76086 4.02421 6.75078 3.51161 7.97518 3.61984C8.82043 3.69439 9.58473 3.99576 10.2055 4.58331C12.5269 6.77959 14.8378 8.98671 17.1551 11.187C18.2817 12.2567 18.5001 13.6137 17.7667 15.0738C17.5326 15.5395 17.2381 15.9675 16.9279 16.3859C16.8277 16.521 16.7716 16.4974 16.6633 16.3988C16.1139 15.8986 15.5608 15.4024 14.9997 14.9155C14.8847 14.8157 14.8919 14.7451 14.954 14.6273C15.2574 14.0526 15.3384 13.4747 14.9628 12.8923C14.8759 12.7573 14.7616 12.6519 14.6482 12.5452C12.7517 10.7654 10.8532 8.98791 8.95631 7.20844C8.82403 7.08419 8.70701 6.94431 8.57716 6.81766C8.15113 6.40126 7.70426 6.34114 7.17923 6.62489C6.8562 6.79924 6.57245 7.02889 6.31995 7.28939C5.5737 8.06049 4.82903 8.83401 4.10483 9.62596C3.7329 10.0327 3.6804 10.5658 3.66878 11.0892C3.64513 12.1717 3.87238 13.2206 4.13688 14.261C4.59298 16.0529 5.28673 17.769 5.83461 19.5301C6.25543 20.8815 7.17603 21.6081 8.39321 22.1083C9.71098 22.6498 11.0909 22.9748 12.4724 23.2934C14.8582 23.8433 17.2601 24.3286 19.6111 25.0221C19.6808 25.0423 19.7502 25.0656 19.8484 25.0968L19.85 25.0966Z" fill="#818898"/>
<path d="M17.8213 10.1328C17.4734 9.7965 17.1724 9.50593 16.8718 9.21538C16.8542 9.19813 16.8374 9.1797 16.8193 9.16285C16.6442 9.00015 16.4871 8.73683 16.2891 8.70115C16.0606 8.66028 15.9837 9.02178 15.7697 9.15485C15.1873 8.55448 14.6046 7.9481 14.0138 7.34933C13.9092 7.24313 13.9858 7.20103 14.0467 7.1369C14.3309 6.83753 14.3289 6.83913 14.0331 6.56138C13.6427 6.19468 13.2556 5.82475 12.8728 5.46165C12.8816 5.40353 12.9153 5.40593 12.9478 5.40513C14.4912 5.37268 16.0342 5.341 17.5776 5.30573C17.7235 5.30253 17.8261 5.29933 17.8249 5.50213C17.8177 7.01988 17.8209 8.53805 17.8209 10.1328H17.8213Z" fill="#818898"/>
<path d="M10.0387 16.5193C10.336 16.8046 10.6018 17.0587 10.8667 17.3128C11.0631 17.5012 11.2635 17.686 11.4538 17.8799C11.5472 17.9749 11.6009 17.9905 11.7019 17.8755C12.0694 17.4575 12.0718 17.4651 12.4514 17.8627C12.8842 18.316 13.3179 18.7689 13.7619 19.2113C13.8922 19.3412 13.9078 19.4318 13.7543 19.54C13.7142 19.568 13.6882 19.6157 13.6477 19.6426C13.495 19.744 13.5467 19.8257 13.6553 19.9267C14.0601 20.3027 14.4593 20.685 14.8601 21.0653C14.8949 21.0982 14.9262 21.1351 14.9919 21.2048C14.6641 21.2197 14.3739 21.2393 14.0838 21.2453C12.8221 21.271 11.56 21.2886 10.2984 21.3194C10.0952 21.3243 10.0134 21.293 10.0154 21.0577C10.0282 19.6309 10.0214 18.2038 10.0222 16.7766C10.0222 16.706 10.031 16.6355 10.0387 16.5193Z" fill="#818898"/>
<path d="M7.87671 1.64013C8.41698 0.899887 9.13518 0.503112 9.95398 0.266652C10.7964 0.0233775 11.6653 -0.0659968 12.5278 0.0510314C13.1851 0.140005 13.8247 0.361237 14.4708 0.528762C16.6009 1.08224 18.7327 1.63051 20.8601 2.19562C22.4616 2.62085 23.5754 3.63363 24.2956 5.1069C24.9268 6.39823 25.2679 7.78412 25.6258 9.16442C26.033 10.7359 26.451 12.3034 26.9363 13.854C27.352 15.1818 27.41 16.5152 26.7035 17.7908C26.3475 18.4333 25.8703 18.9792 25.3536 19.491C24.5849 20.252 23.8058 21.0023 23.0259 21.7518C22.171 22.5734 21.1863 23.0956 19.9607 22.9994C19.1147 22.9329 18.3476 22.6391 17.7207 22.0576C15.3782 19.8841 13.0456 17.6999 10.707 15.522C9.57003 14.4636 9.33836 13.1085 10.0574 11.6417C10.2866 11.1735 10.5772 10.7427 10.8834 10.3215C10.9824 10.1852 11.0385 10.2084 11.1479 10.3062C11.7022 10.8012 12.2601 11.2918 12.826 11.7731C12.9418 11.8717 12.9354 11.9422 12.8745 12.0609C12.5767 12.6388 12.5013 13.2171 12.8825 13.7958C12.9707 13.9297 13.0861 14.0343 13.2007 14.1397C15.1144 15.9007 17.0302 17.6598 18.9443 19.4204C19.0778 19.5431 19.1964 19.6821 19.3271 19.8076C19.7571 20.2196 20.2048 20.2753 20.7266 19.9867C21.048 19.8092 21.3298 19.5767 21.5795 19.3138C22.3181 18.5351 23.0551 17.7548 23.7717 16.9556C24.1397 16.5452 24.1869 16.0118 24.1934 15.488C24.2066 14.4055 23.9693 13.3586 23.6944 12.321C23.2211 10.5335 22.5105 8.82455 21.945 7.06913C21.5113 5.7217 20.5831 5.0043 19.3611 4.51615C18.0381 3.98752 16.6551 3.6757 15.2703 3.3707C12.8793 2.84407 10.473 2.38238 8.11518 1.71187C8.04506 1.69183 7.97571 1.66939 7.87711 1.63933L7.87671 1.64013Z" fill="#818898"/>
<path d="M48.1587 14.7612H39.7937V21.2622C39.7937 21.7892 39.6092 21.9738 39.0822 21.9717H36.5925C36.1475 21.9717 35.9607 21.7872 35.9587 21.3401C35.9587 15.829 35.9587 10.3186 35.9587 4.80887C35.9587 4.37412 36.164 4.18135 36.5965 4.1793H39.1355C39.5887 4.1793 39.7957 4.38437 39.7957 4.84375V11.3324H48.161V4.89295C48.161 4.36592 48.3455 4.1793 48.8705 4.17725H51.3827C51.8132 4.17725 52.0122 4.38232 52.0122 4.81707V21.3237C52.0122 21.781 51.8215 21.9717 51.3702 21.9717H48.8315C48.3537 21.9717 48.1587 21.779 48.1587 21.295V14.7612Z" fill="#818898"/>
<path d="M120.561 3.7937C122.92 3.86343 125.009 4.40893 126.798 5.85883C127.889 6.725 128.722 7.87318 129.207 9.17903C129.239 9.2697 129.262 9.36303 129.277 9.45793C129.29 9.5049 129.292 9.5541 129.284 9.60208C129.276 9.65008 129.257 9.69573 129.23 9.7359C129.202 9.77605 129.167 9.8098 129.125 9.83473C129.083 9.85968 129.036 9.87525 128.988 9.88038C128.008 10.1326 127.027 10.3931 126.045 10.6433C125.735 10.7212 125.635 10.6597 125.477 10.3459C124.847 9.1462 123.97 8.1721 122.686 7.6922C119.788 6.60735 116.099 7.9465 115.264 11.6871C114.825 13.6579 115.229 15.4769 116.562 17.0191C117.021 17.5475 117.583 17.9762 118.214 18.2785C118.845 18.5808 119.532 18.7503 120.231 18.7766C121.174 18.8734 122.126 18.7125 122.985 18.3111C124.046 17.7728 124.908 16.9109 125.446 15.8502C125.68 15.4134 125.713 15.3908 126.203 15.518L128.842 16.207C129.322 16.3321 129.394 16.4736 129.213 16.9514C128.669 18.4022 127.701 19.6555 126.435 20.5485C124.589 21.8876 122.485 22.4147 120.235 22.2957C116.523 22.0907 113.722 20.3926 112.001 17.0601C111.181 15.481 110.976 13.7645 111.169 12.007C111.364 9.93703 112.292 8.00478 113.786 6.55813C115.289 5.06195 117.257 4.12178 119.366 3.89213C119.796 3.83678 120.231 3.8183 120.561 3.7937Z" fill="#818898"/>
<path d="M103.874 18.6004L104.574 16.0575C105.108 14.1024 105.643 12.148 106.178 10.1943C106.305 9.7288 106.489 9.5791 106.971 9.5791H109.678C110.242 9.5791 110.447 9.85595 110.275 10.3994C109.43 13.1105 108.582 15.8196 107.73 18.5266C107.158 20.3518 106.586 22.1777 106.013 24.0042C105.669 25.2206 104.926 26.2858 103.903 27.0291C102.964 27.6998 101.893 27.9028 100.765 27.8638C99.5732 27.8578 98.412 27.4831 97.441 26.7913C97.4103 26.7686 97.3775 26.7441 97.3468 26.7173C96.8628 26.3073 96.828 26.0448 97.1888 25.5218L98.046 24.2913C98.3085 23.9181 98.5937 23.834 99.0037 24.0391C99.2087 24.1416 99.3915 24.3057 99.6048 24.3939C99.915 24.5418 100.244 24.6467 100.583 24.7056C100.898 24.7553 101.22 24.7002 101.501 24.5486C101.782 24.3971 102.004 24.1575 102.135 23.8668C102.424 23.27 102.623 22.6363 102.878 21.9657H101.658C101.178 21.9657 100.991 21.8386 100.837 21.3813C99.623 17.7514 98.4105 14.1216 97.199 10.4917C97.1675 10.4005 97.1448 10.3064 97.1315 10.2107C97.0883 9.83955 97.2648 9.5955 97.636 9.5955C98.6983 9.58045 99.7612 9.58045 100.825 9.5955C101.151 9.5955 101.272 9.86005 101.35 10.1185C101.686 11.2341 102.01 12.3538 102.341 13.4735C102.824 15.1141 103.309 16.7547 103.795 18.3954C103.817 18.4528 103.836 18.4897 103.874 18.6004Z" fill="#818898"/>
<path d="M87.7687 16.6747C87.7937 17.0407 87.8955 17.3975 88.0672 17.7218C88.2387 18.0461 88.4767 18.3307 88.7652 18.5573C90.1005 19.6134 92.0977 19.4186 93.2935 18.1184C93.6462 17.7349 93.763 17.7226 94.1937 18.0015C94.768 18.3727 95.3462 18.7398 95.9205 19.113C96.3182 19.3714 96.3675 19.6442 96.0537 20.0113C95.0975 21.1857 93.74 21.9644 92.2435 22.1974C90.851 22.4025 89.4565 22.4189 88.1192 21.9144C85.8082 21.0448 84.428 19.3694 84.028 16.9331C83.855 16.0063 83.8855 15.053 84.1177 14.1394C84.3502 13.2257 84.7785 12.3735 85.3735 11.6421C86.532 10.1881 88.0907 9.43338 89.9302 9.25908C91.5662 9.06608 93.2135 9.51283 94.528 10.5059C96.142 11.7241 96.9417 13.377 96.989 15.3909C96.989 15.639 96.989 15.8913 96.989 16.1394C96.995 16.2084 96.986 16.278 96.9627 16.3433C96.9395 16.4086 96.9025 16.4681 96.8545 16.5179C96.8062 16.5677 96.7477 16.6065 96.6832 16.6318C96.6187 16.6571 96.5495 16.6682 96.4802 16.6644C96.3675 16.6644 96.2547 16.6644 96.142 16.6644H87.7747L87.7687 16.6747ZM93.3262 14.3757C93.1397 13.1248 91.9892 12.1896 90.6377 12.1691C89.9905 12.1569 89.3595 12.3705 88.8527 12.7732C88.346 13.1759 87.9952 13.7426 87.861 14.3757H93.3262Z" fill="#818898"/>
<path d="M143.607 15.4956C143.607 18.5554 141.952 20.922 139.275 21.8674C136.558 22.8271 134.064 22.3432 131.946 20.3806C130.484 19.0291 129.895 17.286 130.03 15.2947C130.219 12.4687 132.338 10.0303 135.299 9.37614C138.072 8.76092 141.027 9.92372 142.544 12.2472C143.244 13.3259 143.617 14.5195 143.607 15.4956ZM133.763 15.791C133.763 17.5464 135.096 18.9225 136.788 18.9225C137.197 18.9225 137.602 18.8411 137.979 18.6828C138.356 18.5245 138.698 18.2925 138.984 18.0006C139.271 17.7086 139.496 17.3624 139.647 16.9823C139.798 16.6022 139.872 16.1958 139.864 15.7868C139.864 14.0663 138.498 12.6266 136.868 12.6307C136.454 12.6264 136.044 12.7055 135.662 12.8633C135.28 13.021 134.934 13.2541 134.644 13.5487C134.354 13.8433 134.126 14.1933 133.974 14.5779C133.823 14.9624 133.75 15.3736 133.761 15.7868L133.763 15.791Z" fill="#818898"/>
<path d="M67.6499 15.8012C67.6584 17.1373 67.2456 18.4421 66.4701 19.5303C65.6949 20.6185 64.5964 21.4348 63.3309 21.8632C60.6176 22.8271 58.1219 22.3472 55.9974 20.3908C54.5474 19.0537 53.9466 17.329 54.0676 15.3561C54.2604 12.1918 56.7806 9.614 59.9984 9.27972C62.5659 9.00902 64.7274 9.84985 66.3454 11.9088C67.1964 13.0276 67.6549 14.3956 67.6499 15.8012ZM60.8514 12.6327C60.4434 12.6364 60.0399 12.7213 59.6649 12.8824C59.2899 13.0436 58.9506 13.2777 58.6669 13.5713C58.3834 13.8649 58.1609 14.2119 58.0129 14.5923C57.8646 14.9727 57.7936 15.3787 57.8041 15.7868C57.8041 17.5505 59.1246 18.9286 60.8146 18.9327C61.6351 18.9171 62.4174 18.5814 62.9939 17.9972C63.5704 17.413 63.8959 16.6266 63.9006 15.8058C63.9054 14.985 63.5894 14.1949 63.0196 13.6039C62.4499 13.013 61.6719 12.6682 60.8514 12.643V12.6327Z" fill="#818898"/>
<path d="M72.9868 10.8646C73.425 10.3938 73.9493 10.0109 74.531 9.73671C75.3835 9.34416 76.3198 9.16806 77.2565 9.22401C78.3933 9.22266 79.5 9.58801 80.4125 10.2658C81.596 11.1681 82.1845 12.4048 82.371 13.8505C82.4073 14.187 82.423 14.5253 82.4183 14.8636C82.4183 17.0074 82.4183 19.1504 82.4183 21.2928C82.4183 21.7809 82.2378 21.9593 81.7455 21.9593H79.3565C78.8788 21.9593 78.6983 21.7788 78.6983 21.3051C78.6983 19.3815 78.6983 17.4558 78.6983 15.5301C78.7245 14.8059 78.4943 14.0956 78.048 13.5245C77.4185 12.7493 76.5653 12.5319 75.624 12.6098C74.0123 12.7452 72.995 13.8854 72.991 15.5322C72.991 17.4414 72.991 19.3507 72.991 21.262C72.991 21.7809 72.8145 21.9593 72.2998 21.9593H69.927C69.4718 21.9593 69.281 21.7706 69.281 21.3133V10.2494C69.281 9.78796 69.486 9.58701 69.9435 9.58494H72.3203C72.794 9.58494 72.993 9.79004 72.995 10.2638L72.9868 10.8646Z" fill="#818898"/>
<path d="M154.857 10.785C155.296 10.4774 155.706 10.1534 156.151 9.88885C157.082 9.33717 158.113 9.1957 159.176 9.23055C160.387 9.23432 161.56 9.65832 162.494 10.4302C163.609 11.3797 164.134 12.6307 164.276 14.0621C164.301 14.3246 164.298 14.5933 164.298 14.8578V21.3342C164.298 21.773 164.106 21.9658 163.665 21.9658H161.224C160.765 21.9658 160.574 21.7771 160.574 21.3239C160.574 19.4235 160.574 17.5225 160.574 15.6207C160.599 15.0054 160.454 14.3951 160.154 13.8571C159.553 12.8542 158.616 12.5261 157.515 12.6163C155.921 12.7476 154.894 13.8345 154.867 15.4526C154.834 17.3946 154.867 19.3347 154.855 21.2768C154.855 21.8058 154.693 21.9658 154.166 21.9658H151.799C151.354 21.9658 151.172 21.7833 151.172 21.3342V10.217C151.172 9.7781 151.364 9.58737 151.809 9.58532H154.203C154.666 9.58532 154.857 9.7904 154.857 10.2498V10.785Z" fill="#818898"/>
<path d="M148.942 15.7602V21.2706C148.942 21.7894 148.762 21.9658 148.247 21.9678H145.903C145.433 21.9678 145.236 21.7771 145.236 21.3116V10.2498C145.236 9.80883 145.441 9.59556 145.886 9.59351H148.278C148.737 9.59351 148.94 9.79858 148.94 10.258C148.943 12.09 148.943 13.924 148.942 15.7602Z" fill="#818898"/>
<path d="M147.114 8.24608C146.821 8.25045 146.531 8.19633 146.26 8.08685C145.989 7.97738 145.742 7.81478 145.534 7.60863C145.327 7.40245 145.163 7.1569 145.051 6.88635C144.94 6.61583 144.884 6.32578 144.887 6.0333C144.886 5.74103 144.942 5.45145 145.053 5.18115C145.165 4.91085 145.328 4.66518 145.534 4.45825C145.741 4.2513 145.986 4.08715 146.256 3.97525C146.526 3.86335 146.815 3.80588 147.108 3.80615C147.685 3.8237 148.232 4.06528 148.634 4.47968C149.036 4.8941 149.261 5.44875 149.261 6.0261C149.261 6.60348 149.036 7.15813 148.634 7.57255C148.232 7.98695 147.685 8.22853 147.108 8.24608H147.114Z" fill="#818898"/>
</g>
<defs>
<clipPath id="clip0_1_23004">
<rect width="164" height="28" fill="white" transform="translate(0.52179)"/>
</clipPath>
</defs>
</svg>
