<svg
    width="113"
    height="28"
    viewBox="0 0 113 28"
    fill="none"
    xmlns="http://www.w3.org/2000/svg"
>
<g clip-path="url(#clip0_1_22864)">
<mask
            id="mask0_1_22864"
            style="mask-type:luminance"
            maskUnits="userSpaceOnUse"
            x="0"
            y="0"
            width="113"
            height="28"
        >
<path d="M112.013 0.0749512H0.854492V27.8645H112.013V0.0749512Z" fill="white" />
</mask>
<g mask="url(#mask0_1_22864)">
<path
                d="M31.0825 8.17468L27.3218 14.1721H24.1187L25.3191 17.3061L20.313 25.3528L10.7081 0.0749512H28.8854L31.1351 5.99208H21.0218L21.8531 8.17468H31.0825Z"
                fill="#818898"
            />
<path
                d="M14.8147 27.8646L17.7035 23.2371L18.8268 21.4156H14.1339L6.01663 0.0749512L0.919067 7.88165L8.52049 27.8646H14.8147Z"
                fill="#818898"
            />
<path
                d="M38.6594 12.1038V3.01685H40.6381V10.3466H44.1014V12.1038H38.6594Z"
                fill="#818898"
            />
<path
                d="M45.6711 12.1038L48.6652 3.01685H51.113L54.0685 12.1038H52.0116L51.3607 9.94225H48.3279L47.677 12.1038H45.6723H45.6711ZM48.7958 8.26342H50.879L49.8636 4.81379H49.7988L48.7958 8.26342Z"
                fill="#818898"
            />
<path
                d="M56.4868 12.1038V4.77403H54.0266V3.01685H60.9271V4.77403H58.4667V12.1038H56.488H56.4868Z"
                fill="#818898"
            />
<path
                d="M62.6536 12.1038V3.01685H68.8373V4.77403H64.6322V6.63572H68.2387V8.38042H64.6322V10.3466H68.8373V12.1038H62.6536Z"
                fill="#818898"
            />
<path
                d="M70.6986 12.1038V3.01685H75.0082C75.5726 3.01685 76.0576 3.13838 76.4666 3.38145C76.8743 3.62453 77.1913 3.96302 77.4173 4.39692C77.6433 4.83082 77.7558 5.33855 77.7558 5.92013C77.7558 6.5017 77.6195 7.06394 77.3457 7.52738C77.072 7.99195 76.6574 8.32817 76.102 8.53604L77.8853 12.1027H75.6851L74.0971 8.77003H72.6784V12.1027H70.6998L70.6986 12.1038ZM72.6773 7.10485H74.7604C74.9603 7.10485 75.1296 7.07077 75.2682 7.00035C75.4069 6.93105 75.5159 6.82882 75.5942 6.69479C75.6726 6.56076 75.7113 6.3972 75.7113 6.20637V5.63388C75.7113 5.43397 75.6726 5.26927 75.5942 5.13864C75.5159 5.00802 75.408 4.9092 75.2682 4.83878C75.1296 4.76948 74.9603 4.73428 74.7604 4.73428H72.6773V7.1037V7.10485Z"
                fill="#818898"
            />
<path
                d="M79.0402 12.1038L82.0344 3.01685H84.4822L87.4377 12.1038H85.3806L84.7297 9.94225H81.6969L81.0462 12.1038H79.0413H79.0402ZM82.1649 8.26342H84.2482L83.2326 4.81379H83.168L82.1649 8.26342Z"
                fill="#818898"
            />
<path
                d="M89.0657 12.1038V3.01685H91.0443V10.3466H94.5077V12.1038H89.0657Z"
                fill="#818898"
            />
<path
                d="M38.6594 24.5986V15.5117H44.6874V17.2688H40.6381V19.1306H44.0878V20.8753H40.6381V24.5986H38.6594Z"
                fill="#818898"
            />
<path
                d="M46.4464 24.5984V15.5115H50.7558C51.3204 15.5115 51.8054 15.633 52.2142 15.8761C52.6221 16.1192 52.939 16.4576 53.1651 16.8915C53.3911 17.3254 53.5036 17.8332 53.5036 18.4148C53.5036 18.9962 53.3672 19.5585 53.0935 20.0221C52.8198 20.4866 52.4052 20.8228 51.8498 21.0307L53.6331 24.5972H51.4329L49.8449 21.2647H48.4262V24.5972H46.4476L46.4464 24.5984ZM48.4251 19.5995H50.5082C50.7081 19.5995 50.8775 19.5654 51.016 19.495C51.1545 19.4257 51.2636 19.3234 51.342 19.1895C51.4204 19.0554 51.4589 18.8918 51.4589 18.701V18.1286C51.4589 17.9286 51.4204 17.7639 51.342 17.6333C51.2636 17.5026 51.1557 17.4038 51.016 17.3334C50.8775 17.2642 50.7081 17.229 50.5082 17.229H48.4251V19.5983V19.5995Z"
                fill="#818898"
            />
<path
                d="M59.0589 24.7553C58.2603 24.7553 57.5595 24.5781 56.9563 24.2215C56.3532 23.866 55.8864 23.3389 55.5569 22.6404C55.2275 21.9417 55.0618 21.0807 55.0618 20.0562C55.0618 19.0316 55.2263 18.1604 55.5569 17.4653C55.8864 16.7712 56.3532 16.2465 56.9563 15.8898C57.5595 15.5343 58.2603 15.356 59.0589 15.356C59.8573 15.356 60.5684 15.5343 61.1681 15.8898C61.7667 16.2453 62.2312 16.7712 62.5607 17.4653C62.8901 18.1592 63.056 19.0236 63.056 20.0562C63.056 21.0887 62.8913 21.9417 62.5607 22.6404C62.2312 23.3389 61.7667 23.866 61.1681 24.2215C60.5696 24.5769 59.8665 24.7553 59.0589 24.7553ZM59.0589 22.9981C59.4574 22.9981 59.7984 22.9096 60.0811 22.7312C60.3628 22.5528 60.5797 22.295 60.732 21.9566C60.8841 21.618 60.9603 21.2102 60.9603 20.7331V19.3793C60.9603 18.8931 60.8841 18.4829 60.732 18.1491C60.5797 17.8152 60.3628 17.5584 60.0811 17.3813C59.7993 17.203 59.4586 17.1142 59.0589 17.1142C58.659 17.1142 58.3296 17.203 58.0434 17.3813C57.7571 17.5596 57.5379 17.8152 57.3856 18.1491C57.2335 18.4829 57.1573 18.8931 57.1573 19.3793V20.7331C57.1573 21.2102 57.2335 21.618 57.3856 21.9566C57.5379 22.295 57.7571 22.5528 58.0434 22.7312C58.3296 22.9096 58.668 22.9981 59.0589 22.9981Z"
                fill="#818898"
            />
<path
                d="M65.0364 24.5984V15.5115H67.1979L69.6844 19.8073L70.5566 21.6304H70.5953V15.5115H72.457V24.5984H70.2955L67.809 20.3026L66.9366 18.4795H66.898V24.5984H65.0364Z"
                fill="#818898"
            />
<path
                d="M76.6452 24.5986V17.2688H74.1849V15.5117H81.0854V17.2688H78.625V24.5986H76.6463H76.6452Z"
                fill="#818898"
            />
<path
                d="M82.6946 24.5986V23.0232H83.8668V17.0871H82.6946V15.5117H87.0166V17.0871H85.8443V23.0232H87.0166V24.5986H82.6946Z"
                fill="#818898"
            />
<path
                d="M88.804 24.5984V15.5115H94.9877V17.2686H90.7826V19.1304H94.3891V20.875H90.7826V22.8413H94.9877V24.5984H88.804Z"
                fill="#818898"
            />
<path
                d="M96.8489 24.5984V15.5115H101.158C101.723 15.5115 102.208 15.633 102.617 15.8761C103.025 16.1192 103.342 16.4576 103.568 16.8915C103.794 17.3254 103.906 17.8332 103.906 18.4148C103.906 18.9962 103.77 19.5585 103.496 20.0221C103.222 20.4866 102.808 20.8228 102.252 21.0307L104.036 24.5972H101.835L100.248 21.2647H98.8287V24.5972H96.85L96.8489 24.5984ZM98.8275 19.5995H100.911C101.111 19.5995 101.28 19.5654 101.418 19.495C101.557 19.4257 101.666 19.3234 101.744 19.1895C101.823 19.0554 101.862 18.8918 101.862 18.701V18.1286C101.862 17.9286 101.823 17.7639 101.744 17.6333C101.666 17.5026 101.558 17.4038 101.418 17.3334C101.28 17.2642 101.111 17.229 100.911 17.229H98.8275V19.5983V19.5995Z"
                fill="#818898"
            />
<path
                d="M108.461 24.7555C107.671 24.7555 106.997 24.617 106.437 24.3388C105.877 24.0616 105.402 23.7094 105.011 23.2846L106.313 21.9693C106.616 22.3169 106.961 22.577 107.347 22.7508C107.734 22.9246 108.148 23.0109 108.591 23.0109C109.077 23.0109 109.437 22.911 109.671 22.7111C109.905 22.5111 110.022 22.2465 110.022 21.9171C110.022 21.7523 109.994 21.6024 109.937 21.4684C109.88 21.3343 109.776 21.2208 109.625 21.13C109.473 21.0391 109.253 20.9754 108.967 20.9413L108.069 20.8244C107.435 20.738 106.912 20.579 106.5 20.3496C106.088 20.1202 105.782 19.8158 105.582 19.4387C105.382 19.0616 105.282 18.6208 105.282 18.1176C105.282 17.5712 105.419 17.0908 105.692 16.6784C105.966 16.2661 106.357 15.9424 106.865 15.7084C107.372 15.4744 107.982 15.3574 108.693 15.3574C109.405 15.3574 109.983 15.4676 110.503 15.6891C111.023 15.9106 111.471 16.2252 111.843 16.6329L110.528 17.9609C110.311 17.7099 110.049 17.5031 109.741 17.3429C109.433 17.1828 109.044 17.1021 108.575 17.1021C108.132 17.1021 107.803 17.1805 107.586 17.336C107.369 17.4929 107.26 17.7099 107.26 17.9869C107.26 18.1949 107.296 18.364 107.37 18.4947C107.444 18.6253 107.561 18.7252 107.721 18.7945C107.881 18.8639 108.088 18.9206 108.339 18.9638L109.238 19.1069C109.862 19.2024 110.379 19.3625 110.787 19.5885C111.195 19.8146 111.498 20.1087 111.698 20.4734C111.898 20.838 111.998 21.2809 111.998 21.8011C111.998 22.3828 111.861 22.8951 111.588 23.3369C111.314 23.78 110.913 24.1263 110.384 24.3785C109.854 24.6295 109.211 24.7555 108.457 24.7555H108.461Z"
                fill="#818898"
            />
</g>
</g>
<defs>
<clipPath id="clip0_1_22864">
<rect
                width="111.181"
                height="28"
                fill="white"
                transform="translate(0.858276)"
            />
</clipPath>
</defs>
</svg>
