<svg
    width="106"
    height="20"
    viewBox="0 0 106 20"
    fill="none"
    xmlns="http://www.w3.org/2000/svg"
>
<g clip-path="url(#clip0_1_22928)">
<path
            d="M100.049 0.225098L101.859 1.48735L101.763 5.30059L99.9541 4.03834L100.049 0.225098Z"
            fill="#D2D2D2"
        />
<path
            d="M99.9392 4.68213L101.748 5.94438L101.548 13.955L99.7392 12.6927L99.9392 4.68213Z"
            fill="#D2D2D2"
        />
<path
            d="M104.011 14.3047L105.82 15.5669L105.726 19.3299L103.917 18.0676L104.011 14.3047Z"
            fill="#D2D2D2"
        />
<path
            d="M81.0372 3.99463L82.8465 5.25688L82.7418 9.44893L80.9326 8.18668L81.0372 3.99463Z"
            fill="#D2D2D2"
        />
<path
            d="M71.5759 11.5986L73.3852 12.8609L73.2249 19.2648L71.4169 18.0026L71.5759 11.5986Z"
            fill="#D2D2D2"
        />
<path
            d="M71.8637 0.104492L73.673 1.36675L73.5101 7.87668L71.7021 6.61443L71.8637 0.104492Z"
            fill="#D2D2D2"
        />
<path
            d="M74.92 6.94971L76.7292 8.21196L74.4643 8.23712L72.6551 6.97487L74.92 6.94971Z"
            fill="#D2D2D2"
        />
<path
            d="M92.2832 0.163086L94.0925 1.42534L93.8686 8.65051L92.0594 7.38826L92.2832 0.163086Z"
            fill="#D2D2D2"
        />
<path
            d="M86.6606 3.93213L88.4698 5.19438L82.8473 5.25663L81.038 3.99438L86.6606 3.93213Z"
            fill="#D2D2D2"
        />
<path
            d="M86.8116 8.12158L88.6208 9.38383L88.5374 12.7309L86.7294 11.4686L86.8116 8.12158Z"
            fill="#D2D2D2"
        />
<path
            d="M92.0606 7.38818L93.8699 8.65044L88.3825 8.71136L86.5732 7.44911L92.0606 7.38818Z"
            fill="#D2D2D2"
        />
<path
            d="M3.66532 4.71484L5.47327 5.9771L3.10903 6.00359L1.29976 4.74133L3.66532 4.71484Z"
            fill="#D2D2D2"
        />
<path
            d="M11.1162 0L12.9254 1.26225L12.8102 5.89536L11.0009 4.63311L11.1162 0Z"
            fill="#D2D2D2"
        />
<path
            d="M11.001 4.63281L12.8102 5.89506L10.8831 5.91758L9.07515 4.65533L11.001 4.63281Z"
            fill="#D2D2D2"
        />
<path
            d="M9.07723 4.65576L10.8852 5.91801L10.6468 15.4954L8.83882 14.2332L9.07723 4.65576Z"
            fill="#D2D2D2"
        />
<path
            d="M22.1471 17.9219L23.955 19.1841L2.77489 19.4212L0.965614 18.159L22.1471 17.9219Z"
            fill="#D2D2D2"
        />
<path
            d="M22.3191 11.0132L24.1364 12.2662L23.9536 19.184L22.1456 17.9217L22.3191 11.0132Z"
            fill="#D2D2D2"
        />
<path
            d="M30.2729 5.31934L32.0809 6.58159L32.0425 8.16172L30.2332 6.89947L30.2729 5.31934Z"
            fill="#D2D2D2"
        />
<mask
            id="mask0_1_22928"
            style="mask-type:luminance"
            maskUnits="userSpaceOnUse"
            x="24"
            y="18"
            width="5"
            height="2"
        >
<path
                d="M26.0739 19.3575L24.2646 18.0952C24.8235 18.4846 25.5057 18.7098 26.2487 18.7005L28.058 19.9628C27.3163 19.9707 26.6328 19.7469 26.0739 19.3575Z"
                fill="white"
            />
</mask>
<g mask="url(#mask0_1_22928)">
<path
                d="M26.2487 18.7005L28.058 19.9628C27.3163 19.9707 26.6328 19.7469 26.0739 19.3575L24.2646 18.0952C24.8235 18.4846 25.5057 18.7098 26.2487 18.7005Z"
                fill="#D2D2D2"
            />
</g>
<path
            d="M30.0608 10.1548L31.8701 11.417L31.7536 16.0661L29.9443 14.8038L30.0608 10.1548Z"
            fill="#D2D2D2"
        />
<path
            d="M38.1612 5.23047L39.9704 6.49272L32.0804 6.58146L30.2724 5.31921L38.1612 5.23047Z"
            fill="#D2D2D2"
        />
<mask
            id="mask1_1_22928"
            style="mask-type:luminance"
            maskUnits="userSpaceOnUse"
            x="41"
            y="1"
            width="5"
            height="8"
        >
<path
                d="M41.3349 1.70459L43.1442 2.96684C44.9111 4.19995 46.0382 6.28737 45.9786 8.66618L44.1694 7.40393C44.229 5.0238 43.1018 2.9377 41.3349 1.70459Z"
                fill="white"
            />
</mask>
<g mask="url(#mask1_1_22928)">
<path
                d="M41.3349 1.70459L43.1442 2.96684C43.3177 3.08737 43.4846 3.21717 43.6448 3.3536L41.8356 2.09134C41.6753 1.95492 41.5084 1.82512 41.3349 1.70459Z"
                fill="#D2D2D2"
            />
<path
                d="M41.8367 2.09131L43.646 3.35356C43.8751 3.54826 44.091 3.76018 44.291 3.98535L42.4817 2.7231C42.2817 2.49793 42.0658 2.28734 41.8367 2.09131Z"
                fill="#D2D2D2"
            />
<path
                d="M42.4812 2.72314L44.2905 3.9854C44.5647 4.29268 44.8097 4.62646 45.023 4.98275L43.2137 3.7205C43.0004 3.3642 42.7541 3.03043 42.4812 2.72314Z"
                fill="#D2D2D2"
            />
<path
                d="M43.2137 3.72021L45.0229 4.98247C45.5223 5.81425 45.8468 6.76922 45.9474 7.79704L44.1382 6.53478C44.0375 5.50697 43.713 4.55333 43.2137 3.72021Z"
                fill="#D2D2D2"
            />
<path
                d="M44.1376 6.5354L45.9469 7.79765C45.9747 8.08242 45.9853 8.37249 45.9787 8.66785L44.1694 7.4056C44.1774 7.11023 44.1655 6.82017 44.1376 6.5354Z"
                fill="#D2D2D2"
            />
</g>
<path
            d="M44.1065 9.99854L45.9158 11.2608L31.8707 11.4171L30.0615 10.1548L44.1065 9.99854Z"
            fill="#D2D2D2"
        />
<path
            d="M44.1693 7.40381L45.9786 8.66606L45.9137 11.2608L44.1044 9.99851L44.1693 7.40381Z"
            fill="#D2D2D2"
        />
<path
            d="M40.3598 18.5427L42.169 19.805L28.0565 19.9626L26.2472 18.7003L40.3598 18.5427Z"
            fill="#D2D2D2"
        />
<path
            d="M44.065 11.5798L45.8743 12.8421L45.7908 16.1838L43.9816 14.9216L44.065 11.5798Z"
            fill="#D2D2D2"
        />
<mask
            id="mask2_1_22928"
            style="mask-type:luminance"
            maskUnits="userSpaceOnUse"
            x="40"
            y="14"
            width="6"
            height="6"
        >
<path
                d="M43.981 14.9219L45.7903 16.1841C45.7413 18.1616 44.1188 19.7841 42.1678 19.8053L40.3585 18.5431C42.3095 18.5219 43.932 16.8994 43.981 14.9219Z"
                fill="white"
            />
</mask>
<g mask="url(#mask2_1_22928)">
<path
                d="M43.9796 14.9219L45.7889 16.1841C45.7876 16.257 45.7836 16.3311 45.777 16.4027L43.9677 15.1404C43.9744 15.0676 43.9783 14.9947 43.9796 14.9219Z"
                fill="#D2D2D2"
            />
<path
                d="M43.9676 15.1401L45.7769 16.4024C45.7636 16.5627 45.7398 16.7189 45.7067 16.8726L43.8974 15.6103C43.9305 15.4567 43.9544 15.3004 43.9676 15.1401Z"
                fill="#D2D2D2"
            />
<path
                d="M43.8999 15.6104L45.7092 16.8726C45.6801 17.0077 45.643 17.1402 45.5993 17.27L43.79 16.0077C43.8337 15.8779 43.8708 15.7455 43.8999 15.6104Z"
                fill="#D2D2D2"
            />
<path
                d="M43.7905 16.0078L45.5997 17.2701C45.5587 17.3932 45.511 17.5124 45.4567 17.6303L43.6474 16.3681C43.7004 16.2515 43.7481 16.131 43.7905 16.0078Z"
                fill="#D2D2D2"
            />
<path
                d="M43.6472 16.3682L45.4564 17.6304C45.4035 17.747 45.3438 17.8609 45.2789 17.9708L43.4697 16.7086C43.5346 16.5986 43.5942 16.4847 43.6472 16.3682Z"
                fill="#D2D2D2"
            />
<path
                d="M43.469 16.7085L45.2783 17.9707C45.2107 18.086 45.1379 18.1959 45.0584 18.3019L43.2491 17.0396C43.3273 16.9337 43.4015 16.8224 43.469 16.7085Z"
                fill="#D2D2D2"
            />
<path
                d="M43.2494 17.0398L45.0587 18.302C44.9712 18.4213 44.8759 18.5338 44.7752 18.6411L42.9659 17.3789C43.0666 17.2716 43.162 17.1577 43.2494 17.0398Z"
                fill="#D2D2D2"
            />
<path
                d="M42.9679 17.3804L44.7772 18.6426C44.654 18.7738 44.5229 18.8956 44.3825 19.0069L42.5732 17.7446C42.7136 17.6334 42.8447 17.5115 42.9679 17.3804Z"
                fill="#D2D2D2"
            />
<path
                d="M42.5731 17.7444L44.3824 19.0066C43.7678 19.498 42.9969 19.7974 42.1678 19.8053L40.3585 18.5431C41.1877 18.5338 41.9572 18.2358 42.5731 17.7444Z"
                fill="#D2D2D2"
            />
</g>
<path
            d="M48.586 6.77856L50.3953 8.04082L46.5542 8.0832L44.7449 6.82095L48.586 6.77856Z"
            fill="#D2D2D2"
        />
<path
            d="M53.4291 6.63184L55.237 7.89409L54.1364 7.90733L52.3271 6.64508L53.4291 6.63184Z"
            fill="#D2D2D2"
        />
<path
            d="M52.3258 6.64502L54.135 7.90727L54.0993 13.0199L52.29 11.7576L52.3258 6.64502Z"
            fill="#D2D2D2"
        />
<path
            d="M56.4384 0.276367L58.2464 1.53861L59.8424 10.724L58.0345 9.46179L56.4384 0.276367Z"
            fill="#D2D2D2"
        />
<path
            d="M53.7719 18.1987L55.5811 19.461L46.2659 19.5656L44.458 18.3034L53.7719 18.1987Z"
            fill="#D2D2D2"
        />
<path
            d="M53.934 11.7393L55.7433 13.0015L55.5817 19.4611L53.7724 18.1989L53.934 11.7393Z"
            fill="#D2D2D2"
        />
<path
            d="M64.1582 6.60522L65.9675 7.86748L64.5913 7.88205L62.782 6.61979L64.1582 6.60522Z"
            fill="#D2D2D2"
        />
<path
            d="M62.7819 6.61963L64.5912 7.88188L62.1051 15.6262L60.2959 14.3639L62.7819 6.61963Z"
            fill="#D2D2D2"
        />
<path
            d="M60.2961 14.364L62.1054 15.6263L57.0604 15.6819L55.2511 14.4196L60.2961 14.364Z"
            fill="#D2D2D2"
        />
<path
            d="M67.9158 6.65674L69.725 7.91899L69.6018 12.8475L67.7939 11.5852L67.9158 6.65674Z"
            fill="#D2D2D2"
        />
<path
            d="M71.7004 6.61426L73.5084 7.87651L69.7243 7.91889L67.915 6.65664L71.7004 6.61426Z"
            fill="#D2D2D2"
        />
<path
            d="M71.4186 18.0024L73.2265 19.2647L63.9391 19.368L62.1298 18.1058L71.4186 18.0024Z"
            fill="#D2D2D2"
        />
<path
            d="M99.9558 4.03857L101.765 5.30083L94.7015 5.37897L92.8935 4.11672L99.9558 4.03857Z"
            fill="#D2D2D2"
        />
<path
            d="M92.0595 7.38826L86.5721 7.44918L86.6595 3.93263L81.037 3.99488L80.9324 8.18693L86.8118 8.12203L86.7297 11.4691L80.9125 11.4743L80.9045 11.7737L80.7403 18.3643L72.3681 18.4571L72.5324 11.8677L74.7973 11.8426L74.9191 6.94984L72.6542 6.97501L72.8185 0.384278L75.0833 0.359112L92.2834 0.163086L92.0595 7.38826Z"
            fill="#818898"
        />
<path
            d="M11.1179 0L11.0027 4.63311L9.07687 4.65563L8.83846 14.2331L12.6914 14.1894L12.7669 11.1205L22.3206 11.0132L22.1471 17.9219L0.965614 18.1589L1.06098 14.3192L3.4623 12.8053L3.66495 4.71523L1.29939 4.74172L1.41595 0.108609L11.1179 0Z"
            fill="#818898"
        />
<path
            d="M44.1048 9.99895L30.0598 10.1552L29.9446 14.8043L32.4201 14.7765L32.4969 11.7089L44.0664 11.5804L43.983 14.9222C43.934 16.8997 42.3115 18.5222 40.3605 18.5434L26.2479 18.701C24.2969 18.7222 22.7538 17.1368 22.8028 15.1579L22.9896 7.64001C23.085 3.80028 26.2333 0.654581 30.0187 0.612197L37.4863 0.528753C41.273 0.486369 44.2638 3.56452 44.1684 7.40293L44.1035 9.99763L44.1048 9.99895ZM30.2717 5.31948L30.232 6.89961L38.1207 6.8122L38.1605 5.23207L30.2717 5.31948Z"
            fill="#818898"
        />
<path
            d="M71.8619 0.104492L71.7003 6.61443L67.9149 6.65682L67.7931 11.5853L71.5758 11.5985L71.4169 18.0025L62.1282 18.1058L62.2871 11.7389L64.0301 11.7191L64.1573 6.60516L62.7811 6.61973L60.2951 14.3641L55.25 14.4197L53.4275 6.63165L52.3255 6.64489L52.2898 11.7575L53.9335 11.7389L53.7719 18.1985L44.458 18.3032L44.6182 11.8436L48.4606 11.7999L48.5851 6.77867L44.7441 6.82105L44.9043 0.405154L56.4381 0.276677L58.0341 9.46211L60.409 0.231644L71.8619 0.104492Z"
            fill="#818898"
        />
<path
            d="M100.051 0.225098L99.9558 4.03834L92.8935 4.11649L92.9889 0.304568L100.051 0.225098Z"
            fill="#818898"
        />
<path
            d="M99.9389 4.68213L99.7389 12.6927L104.009 14.3047L103.915 18.0676L88.6886 18.2371L88.7826 14.4742L92.584 12.7722L92.784 4.7616L99.9389 4.68213Z"
            fill="#818898"
        />
<path
            d="M103.915 18.0676L105.724 19.3299L90.4979 19.4994L88.6886 18.2372L103.915 18.0676Z"
            fill="#D2D2D2"
        />
<path
            d="M80.9133 11.4741L82.7213 12.7364L82.7147 13.0357L80.9054 11.7735L80.9133 11.4741Z"
            fill="#D2D2D2"
        />
<path
            d="M80.7403 18.3643L82.5496 19.6265L74.1774 19.7192L72.3681 18.457L80.7403 18.3643Z"
            fill="#D2D2D2"
        />
<path
            d="M80.9052 11.7737L82.7145 13.0359L82.5503 19.6267L80.741 18.3645L80.9052 11.7737Z"
            fill="#D2D2D2"
        />
<path
            d="M86.7303 11.4688L88.5382 12.731L82.721 12.7363L80.913 11.474L86.7303 11.4688Z"
            fill="#D2D2D2"
        />
</g>
<defs>
<clipPath id="clip0_1_22928">
<rect
                width="104.901"
                height="20"
                fill="white"
                transform="translate(0.965942)"
            />
</clipPath>
</defs>
</svg>
