<svg width="92" height="28" viewBox="0 0 92 28" fill="none" xmlns="http://www.w3.org/2000/svg">
<path d="M14.9093 11.8697C12.849 8.62167 11.0418 7 9.48661 7C7.15327 7 5.67976 9.58183 4.81992 13.0865C3.99858 16.4337 4.23658 21 7.15327 21C8.45294 21 10.2426 19.1742 11.9926 16.7393C13.1593 15.1165 14.1311 13.4925 14.9093 11.8697Z" stroke="#818898" stroke-width="2.33334" stroke-linecap="round" stroke-linejoin="round"/>
<path d="M14.9093 11.8697C16.9697 8.62167 18.7768 7 20.332 7C22.6654 7 24.1389 9.58183 24.9987 13.0865C25.8201 16.4337 25.5821 21 22.6654 21C21.3657 21 19.576 19.1742 17.826 16.7393C16.7125 15.205 15.7364 13.5755 14.9093 11.8697Z" stroke="#818898" stroke-width="2.33334" stroke-linecap="round" stroke-linejoin="round"/>
<path d="M38.2432 5.83325H41.4182L46.8168 15.5988L52.2153 5.83325H55.3215V21.8799H52.7311V9.58135L47.9973 18.0975H45.5674L40.8336 9.58135V21.8799H38.2432V5.83325Z" fill="#818898"/>
<path d="M63.674 22.1666C62.4743 22.1666 61.4198 21.9009 60.5105 21.37C59.6011 20.8389 58.8924 20.1033 58.3843 19.1636C57.8761 18.2237 57.6221 17.1463 57.6221 15.9313C57.6221 14.7011 57.8704 13.6122 58.3671 12.6647C58.8638 11.7173 59.5535 10.976 60.436 10.441C61.3186 9.90626 62.333 9.63867 63.4792 9.63867C64.6177 9.63867 65.5977 9.90801 66.4192 10.4467C67.2405 10.9855 67.8728 11.7401 68.3161 12.7105C68.7592 13.681 68.9809 14.8194 68.9809 16.1262V16.8367H60.1896C60.3501 17.815 60.7455 18.5846 61.376 19.1463C62.0063 19.708 62.803 19.9887 63.7657 19.9887C64.5374 19.9887 65.2022 19.8741 65.7601 19.6449C66.3178 19.4156 66.8413 19.068 67.3304 18.6019L68.7058 20.2868C67.3379 21.5401 65.6607 22.1666 63.674 22.1666ZM65.5653 12.6474C65.0226 12.0935 64.3119 11.8164 63.4334 11.8164C62.5775 11.8164 61.8611 12.0992 61.2842 12.6647C60.7072 13.2301 60.3423 13.9905 60.1896 14.9456H66.4937C66.4172 13.9675 66.1077 13.2016 65.5653 12.6474Z" fill="#818898"/>
<path d="M72.1234 12.046H69.7393V9.92552H72.1234V6.41821H74.6221V9.92552H78.2441V12.046H74.6221V17.4216C74.6221 18.3155 74.7749 18.9536 75.0806 19.3357C75.3861 19.7179 75.9096 19.9087 76.6509 19.9087C76.9793 19.9087 77.2584 19.8956 77.4876 19.8686C77.7169 19.842 77.969 19.8055 78.2441 19.7597V21.8572C77.9613 21.9413 77.6424 22.0101 77.287 22.0636C76.9317 22.1169 76.5592 22.1438 76.1695 22.1438C73.472 22.1438 72.1234 20.6692 72.1234 17.7196V12.046Z" fill="#818898"/>
<path d="M91.2653 21.88H88.8124V20.2065C88.3769 20.8332 87.8228 21.3166 87.1505 21.6565C86.478 21.9964 85.7138 22.1666 84.8581 22.1666C83.8036 22.1666 82.8695 21.8971 82.0556 21.3584C81.2418 20.8197 80.6018 20.0786 80.1358 19.1349C79.6696 18.1912 79.4366 17.1119 79.4366 15.8969C79.4366 14.6743 79.6733 13.593 80.1473 12.6531C80.6209 11.7133 81.2762 10.976 82.113 10.441C82.9497 9.90626 83.9105 9.63867 84.9956 9.63867C85.8132 9.63867 86.5467 9.79735 87.1963 10.1144C87.8457 10.4315 88.3844 10.8806 88.8124 11.4611V9.92529H91.2653V21.88ZM88.7666 14.1089C88.499 13.4288 88.0769 12.8921 87.5001 12.4984C86.923 12.1049 86.2565 11.9082 85.5 11.9082C84.43 11.9082 83.5781 12.2674 82.944 12.9855C82.3096 13.7038 81.9926 14.6743 81.9926 15.8969C81.9926 17.1273 82.2981 18.1014 82.9096 18.8197C83.5208 19.538 84.3498 19.8971 85.3968 19.8971C86.1685 19.8971 86.8562 19.6985 87.4599 19.301C88.0635 18.9039 88.499 18.3689 88.7666 17.6964V14.1089Z" fill="#818898"/>
</svg>
