<svg
    xmlns="http://www.w3.org/2000/svg"
    width="118"
    height="28"
    fill="none"
    viewBox="0 0 118 28"
  >
    <g clipPath="url(#clip0_1_22821)">
      <path
        fill="#818898"
        d="M49.735 12.462c.908-.82 2.019-1.221 3.348-1.221 1.347 0 2.457.4 3.366 1.22.909.803 1.363 1.857 1.363 3.145 0 1.271-.454 2.325-1.363 3.128-.892.786-2.002 1.188-3.349 1.188-1.346 0-2.457-.402-3.366-1.188-.891-.803-1.346-1.857-1.346-3.128 0-1.288.455-2.342 1.346-3.145m3.365 5.135c1.06 0 1.902-.787 1.902-1.99 0-1.222-.842-2.041-1.902-2.041s-1.901.819-1.901 2.04c0 1.204.858 1.99 1.901 1.99M64.156 11.24c-1.178 0-2.07.486-2.642 1.439h-.034l.017-.2v-.118c0-.585-.404-.937-1.161-.937h-2.49v2.342h.622c.252 0 .353.117.353.351v5.604h2.81v-3.68c0-.418.05-.786.169-1.087.269-.786.824-1.188 1.649-1.188.623 0 .926.368.926 1.087v3.697c0 .82.353 1.17 1.177 1.17h1.616v-5.368c0-2.091-1.01-3.111-3.012-3.111M69.172 8.213v2.258h2.356V8.213zm1.413 3.211h-2.591v2.342h.622q.354 0 .354.351v4.433c0 .82.353 1.17 1.178 1.17h1.615v-7.108c0-.836-.353-1.188-1.178-1.188M73.933 12.478c.79-.82 1.851-1.237 3.164-1.237 1.194 0 2.137.367 2.827 1.12.69.736 1.043 1.706 1.043 2.877 0 .2-.017.485-.067.87h-5.268c.203.97.993 1.489 1.953 1.489.69 0 1.464-.268 2.305-.837l1.044 1.957c-.892.753-2.272 1.205-3.568 1.205-1.414 0-2.524-.435-3.35-1.288-.824-.854-1.228-1.89-1.228-3.061-.033-1.238.354-2.275 1.145-3.095m4.257 2.04c0-.702-.454-1.237-1.144-1.237-.707 0-1.161.418-1.346 1.238zM81.96 11.575h1.464v.72c0 .334-.05.618-.05.618h.034c.521-.987 1.565-1.539 2.76-1.539 2.22 0 3.6 1.74 3.6 4.265 0 2.593-1.564 4.266-3.718 4.266a2.99 2.99 0 0 1-2.541-1.389h-.034s.067.285.067.703v3.713h-1.565V11.575zm3.854 6.992c1.296 0 2.373-1.054 2.373-2.894 0-1.773-.96-2.91-2.322-2.91-1.229 0-2.373.87-2.373 2.927 0 1.438.807 2.877 2.322 2.877M94.936 11.374c2.457 0 4.426 1.79 4.426 4.249 0 2.475-1.986 4.281-4.41 4.281-2.456 0-4.425-1.806-4.425-4.281 0-2.46 1.985-4.249 4.409-4.249m.017 7.192c1.548 0 2.827-1.22 2.827-2.927 0-1.69-1.28-2.893-2.827-2.893-1.566 0-2.828 1.204-2.828 2.893.017 1.706 1.28 2.927 2.828 2.927M100.589 8.347h1.616v1.572h-1.616zm.034 3.228h1.565v8.162h-1.565zM103.954 11.575h1.532v1.104c0 .334-.051.619-.051.619h.034c.303-.703 1.313-1.924 3.113-1.924 1.936 0 2.811 1.054 2.811 3.128v5.219h-1.565v-4.868c0-1.137-.219-2.04-1.549-2.04-1.598 0-2.743 1.32-2.743 2.993v3.915h-1.565v-8.146zM113.428 12.93h-1.077v-1.271h1.111V9.334h1.547v2.325h1.987v1.27h-1.987v3.647c0 1.622 1.145 1.84 1.751 1.84.117 0 .218 0 .37-.034v1.389c-.134.017-.303.05-.555.05-1.06 0-3.147-.335-3.147-3.06zM47.496 14.803l-.539-6.59h-3.281s-2.508 5.085-2.71 5.77h-.034l-2.625-5.77h-3.281l-.539 5.72-.454 5.804h2.002c.859 0 1.212-.367 1.28-1.27 0 0 .336-5.32.285-6.09h.034l.101.352c.135.468 2.003 5.001 2.003 5.001h2.457s1.868-4.466 2.103-5.352h.034l.286 6.088c.067.903.42 1.271 1.279 1.271h2.002zM14.135 28h-.1c-6.53-.017-10.906-1.372-11.814-2.208C1.26 24.94-.001 20.523-.001 14 0 7.493 1.262 3.06 2.221 2.208 3.129 1.372 7.52.017 14.034 0h.101c6.53.017 10.905 1.372 11.814 2.208.96.853 2.221 5.285 2.221 11.792s-1.262 10.94-2.221 11.792C25.04 26.645 20.665 28 14.135 28"
      ></path>
      <path
        fill="#D2D2D2"
        d="m20.581 14.836-.538-6.54h-3.248s-2.474 5.035-2.693 5.72h-.034l-2.608-5.72H8.195l-.538 5.67-.455 5.754h1.986c.858 0 1.195-.368 1.262-1.271 0 0 .337-5.269.287-6.038h.033l.101.35c.135.47 1.986 4.969 1.986 4.969h2.44s1.851-4.433 2.087-5.32h.033l.286 6.039c.068.903.421 1.271 1.263 1.271h1.985z"
      ></path>
    </g>
    <defs>
      <clipPath id="clip0_1_22821">
        <path fill="#fff" d="M0 0h117.132v28H0z"></path>
      </clipPath>
    </defs>
  </svg>
