<svg
    width="177"
    height="18"
    viewBox="0 0 177 18"
    fill="none"
    xmlns="http://www.w3.org/2000/svg"
>
<g clip-path="url(#clip0_1_22924)">
<path
            fill-rule="evenodd"
            clip-rule="evenodd"
            d="M128.602 12.3057H123.868V9.75978H131.021V17.4766H128.602V15.8401C128.398 16.1306 128.054 16.4039 127.61 16.6481C125.656 17.8428 123.017 17.7087 123.017 17.7087C116.368 17.6726 113.134 10.2532 116.07 4.74701C119.403 -1.47083 129.592 -0.790082 131.351 6.32166L128.728 7.15712C127.932 2.13403 120.664 1.69568 118.482 5.93315C117.021 8.74382 117.681 12.7578 120.531 14.427C122.694 15.8728 126.701 15.1061 128.602 13.0088V12.3057ZM53.9861 15.4292L49.3343 0.75531H44.4436V17.456H47.0669V2.21307L51.9576 17.456H56.0129L60.9036 2.21307V17.456H63.532V0.75531H58.6362L53.9861 15.4292ZM92.2749 3.2617H98.3587V17.456H100.982V3.2617H107.071V0.75531H92.2749V3.2617ZM109.455 0.75531H112.078V17.456H109.455V0.75531ZM139.314 0.75531L132.433 17.4628H135.391L136.988 13.4024H145.243L146.84 17.4628H149.798L142.927 0.75531H139.314ZM137.93 11.0164L141.124 2.92648L144.318 11.0164H137.93ZM153.988 3.2617H147.904V0.75531H162.695V3.2617H156.611V17.456H153.988V3.2617ZM167.708 14.9547V10.0589H175.361V7.55763H167.708V3.2617H176.074V0.75531H165.083V17.456H176.311V14.9547H167.708ZM75.8735 13.4454C76.556 12.8403 76.9926 12.0066 77.1009 11.1023V0.75531H79.762V11.1023C79.762 12.7887 79.0916 14.4064 77.8986 15.5994C76.7056 16.7924 75.0879 17.4628 73.4015 17.4628C71.7151 17.4628 70.0975 16.7924 68.9045 15.5994C67.7114 14.4064 67.041 12.7887 67.041 11.1023V0.75531H69.7021V11.1023C69.8121 12.0066 70.2488 12.8403 70.9295 13.4454C71.6103 14.0505 72.4904 14.384 73.4015 14.384C74.3126 14.384 75.1911 14.0505 75.8735 13.4454ZM85.8625 0.75531H83.2014V17.456H94.5919V14.7949H85.8625V0.75531Z"
            fill="#818898"
        />
<path
            d="M14.424 14.9743L26.2018 3.01975C29.3858 -0.190768 34.5852 -0.190768 37.7674 3.01975L25.9896 14.9743C22.7013 18.1848 17.608 18.1848 14.424 14.9743ZM0.310791 14.863L12.0886 2.90838C15.2726 -0.302142 20.472 -0.302142 23.6542 2.90838L11.8764 14.863C8.6942 18.0735 3.49479 18.0735 0.310791 14.863Z"
            fill="#818898"
        />
<path
            d="M36.4962 16.6344C35.1172 18.0735 32.8879 18.0735 31.5089 16.6344C30.1299 15.1954 30.1299 12.9819 31.5089 11.5429C32.8879 10.1038 35.1172 10.1038 36.4962 11.5429C37.8751 12.9819 37.8751 15.1954 36.4962 16.6344Z"
            fill="#818898"
        />
</g>
<defs>
<clipPath id="clip0_1_22924">
<rect width="176" height="18" fill="white" transform="translate(0.310791)" />
</clipPath>
</defs>
</svg>
