<svg
    width="112"
    height="28"
    viewBox="0 0 112 28"
    fill="none"
    xmlns="http://www.w3.org/2000/svg"
>
<g clip-path="url(#clip0_1_22913)">
<path
            d="M10.047 22.3303C8.69465 22.3303 7.50964 22.1 6.4928 21.6396C5.47597 21.1791 4.7373 20.5363 4.27682 19.7112V27.9991H0.13324V5.8982H4.10473L4.2776 8.27213C5.16007 6.52684 7.08373 5.65381 10.047 5.65381C11.1118 5.65381 12.1121 5.86205 13.0472 6.2801C13.9824 6.69737 14.7933 7.26786 15.4793 7.99238C16.1653 8.7169 16.7068 9.59936 17.1052 10.6398C17.5028 11.681 17.7024 12.8008 17.7024 13.9991C17.7024 15.1975 17.5028 16.318 17.1052 17.3585C16.7068 18.3997 16.1653 19.2798 15.4793 19.9988C14.7933 20.7186 13.9831 21.2867 13.0472 21.704C12.1121 22.1213 11.1118 22.3303 10.047 22.3303ZM8.92489 9.17895C7.62987 9.17895 6.53131 9.63237 5.62998 10.5384C4.72866 11.4452 4.2776 12.5988 4.2776 13.9991C4.2776 15.3994 4.7263 16.553 5.62291 17.4598C6.51952 18.3666 7.62044 18.8193 8.92489 18.8193C10.2293 18.8193 11.3106 18.3659 12.1986 17.4598C13.0858 16.553 13.5297 15.4002 13.5297 13.9991C13.5297 12.598 13.0842 11.4578 12.1915 10.5463C11.2996 9.63551 10.2105 9.17895 8.92489 9.17895Z"
            fill="#818898"
        />
<path
            d="M26.4522 5.65411C27.8046 5.65411 28.9864 5.88435 29.9986 6.34483C31.0107 6.80532 31.7517 7.44811 32.2216 8.27321L32.4086 5.89849H36.3652V22.1003H32.4086L32.2216 19.7115C31.3392 21.4575 29.4155 22.3306 26.4522 22.3306C25.3874 22.3306 24.3871 22.1223 23.452 21.7043C22.5169 21.287 21.7083 20.7189 21.027 19.9991C20.3457 19.2801 19.8058 18.4 19.4082 17.3588C19.0098 16.3176 18.811 15.1986 18.811 13.9994C18.811 12.8003 19.0098 11.6805 19.4082 10.6401C19.8058 9.59888 20.3457 8.7172 21.027 7.99189C21.7075 7.26816 22.5161 6.69688 23.452 6.27961C24.3871 5.86235 25.3874 5.65332 26.4522 5.65332M27.5743 18.8188C28.8788 18.8188 29.9797 18.3654 30.8763 17.4593C31.7729 16.5525 32.2216 15.3966 32.2216 13.9916C32.2216 12.5865 31.7729 11.433 30.8763 10.5308C29.9789 9.62952 28.878 9.17847 27.5743 9.17847C26.2707 9.17847 25.1878 9.62952 24.3006 10.5308C23.4135 11.433 22.9695 12.5881 22.9695 13.9986C22.9695 15.4092 23.415 16.5407 24.3077 17.4523C25.1996 18.363 26.2887 18.8188 27.5743 18.8188Z"
            fill="#818898"
        />
<path
            d="M51.6596 10.0281L47.5161 10.3015C47.41 9.83161 47.1247 9.42613 46.6595 9.08588C46.1943 8.74562 45.6356 8.5751 44.9834 8.5751C44.1968 8.5751 43.5634 8.72598 43.0841 9.02851C42.6047 9.33105 42.3651 9.76482 42.3651 10.3314C42.3651 10.7149 42.5065 11.0386 42.7894 11.3026C43.0723 11.5667 43.4031 11.7678 43.7819 11.9069C44.1607 12.046 44.6958 12.1969 45.3865 12.3604C46.3649 12.5906 47.1852 12.8059 47.8469 13.0079C48.5085 13.209 49.1348 13.4463 49.725 13.7206C50.3151 13.9933 50.7701 14.2934 51.0915 14.6196C51.4129 14.9465 51.6644 15.3299 51.8467 15.7708C52.029 16.2124 52.1107 16.7161 52.0918 17.2819C52.0439 18.8928 51.4082 20.1359 50.1855 21.0082C48.9627 21.8812 47.2575 22.3174 45.0706 22.3174C42.8837 22.3174 41.2673 21.9142 39.9911 21.1088C38.715 20.3025 37.996 19.1474 37.8325 17.641L41.9478 17.2952C42.0916 17.9475 42.4609 18.4535 43.0558 18.8134C43.6507 19.1725 44.3217 19.3525 45.0698 19.3525C45.8949 19.3525 46.5754 19.1851 47.1129 18.8488C47.6497 18.5132 47.9184 18.0433 47.9184 17.439C47.9184 16.8348 47.5852 16.3861 46.9188 16.0073C46.2517 15.6285 45.348 15.3095 44.2062 15.0502C43.0259 14.772 42.1003 14.5182 41.4292 14.2879C40.7573 14.0577 40.1562 13.763 39.6234 13.4031C39.0906 13.0432 38.7213 12.6212 38.5154 12.1372C38.3087 11.6531 38.2058 11.0418 38.2058 10.3031C38.2058 8.7967 38.8148 7.64627 40.0328 6.84946C41.2508 6.05343 42.9395 5.65503 45.0981 5.65503C47.0257 5.65503 48.5628 6.02436 49.7093 6.76302C50.8558 7.50168 51.5056 8.59003 51.6589 10.0296"
            fill="#818898"
        />
<path
            d="M54.7706 2.24414H58.9142V5.89895H62.914V9.13648H58.9142V16.4893C58.9142 17.8126 59.4132 18.5466 60.4104 18.6912C61.1396 18.8546 61.9734 18.8444 62.914 18.6621V22.0725C61.8296 22.2454 60.8229 22.331 59.8925 22.331C58.0412 22.331 56.7241 21.8658 55.9431 20.9354C55.1612 20.005 54.7706 18.5709 54.7706 16.6331V9.13648H52.5688V5.89895H54.7706V2.24414Z"
            fill="#818898"
        />
<path
            d="M72.1685 5.65381C73.4533 5.65381 74.6453 5.87934 75.7439 6.33039C76.8417 6.78145 77.7776 7.41717 78.55 8.23677C79.3217 9.05715 79.9095 10.074 80.3126 11.2873C80.7157 12.5006 80.8737 13.8365 80.7872 15.2949H67.6791C67.9282 16.4367 68.4657 17.3475 69.2908 18.0288C70.1159 18.71 71.0746 19.0503 72.1685 19.0503C73.1177 19.0503 73.9593 18.8083 74.6941 18.3234C75.428 17.8394 75.9961 17.1604 76.3993 16.2874L79.9535 17.9855C79.2243 19.3379 78.1595 20.4003 76.7592 21.1728C75.3589 21.9452 73.8289 22.3311 72.1693 22.3311C70.5096 22.3311 69.1211 22.0002 67.8025 21.3386C66.4831 20.6769 65.4207 19.7049 64.6153 18.4248C63.809 17.1439 63.4067 15.669 63.4067 14.0007C63.4067 12.3324 63.8098 10.8543 64.6153 9.56872C65.4207 8.28392 66.4831 7.30951 67.8025 6.64786C69.1211 5.98621 70.5772 5.65459 72.1693 5.65459M72.1693 8.9495C71.018 8.9495 70.0373 9.2874 69.2272 9.96398C68.4162 10.6406 67.9007 11.5537 67.6799 12.7049H76.6727C76.4425 11.5537 75.9246 10.6406 75.1192 9.96398C74.3129 9.2874 73.3299 8.9495 72.1693 8.9495Z"
            fill="#818898"
        />
<path
            d="M86.4135 -0.000488281H82.27V22.1004H86.4135V-0.000488281Z"
            fill="#818898"
        />
<path
            d="M95.9028 3.2793V7.99652H106.929V19.0301H111.654V3.2793H95.9028Z"
            fill="#818898"
        />
<path
            d="M92.7524 11.8077C92.7524 17.5409 97.391 22.1804 103.125 22.1804H105.354V9.5791H92.7524V11.8077Z"
            fill="#818898"
        />
</g>
<defs>
<clipPath id="clip0_1_22913">
<rect
                width="111.522"
                height="28"
                fill="white"
                transform="translate(0.133362)"
            />
</clipPath>
</defs>
</svg>
