<svg width="148" height="28" viewBox="0 0 148 28" fill="none" xmlns="http://www.w3.org/2000/svg">
<g clip-path="url(#clip0_1_22851)">
<path d="M39.8141 22.7067V27.9999H36.4943V10.7685H39.8141V11.5929C40.8028 10.95 41.9546 10.6032 43.1339 10.5933C46.9036 10.5933 49.6756 13.5903 49.6756 17.1609C49.6756 20.7315 46.9295 23.7285 43.1339 23.7285C41.9496 23.7304 40.7923 23.3743 39.8141 22.7067ZM39.8141 15.5895V18.6363C40.076 19.1939 40.483 19.6708 40.9924 20.0171C41.5018 20.3635 42.095 20.5664 42.7098 20.6049C43.3247 20.6433 43.9385 20.5157 44.4871 20.2355C45.0357 19.9553 45.4988 19.5327 45.8281 19.0121C46.1573 18.4914 46.3406 17.8918 46.3586 17.2761C46.3766 16.6603 46.2287 16.0511 45.9305 15.5121C45.6323 14.973 45.1946 14.5241 44.6633 14.2123C44.132 13.9005 43.5267 13.7373 42.9107 13.7397C42.2738 13.7307 41.647 13.8989 41.1001 14.2256C40.5533 14.5522 40.1081 15.0244 39.8141 15.5895Z" fill="#818898"/>
<path d="M51.4728 7.29573C51.462 7.04444 51.5027 6.79358 51.5923 6.55859C51.682 6.32359 51.8188 6.10942 51.9943 5.92925C52.1698 5.74908 52.3803 5.60671 52.6129 5.5109C52.8455 5.41508 53.0952 5.36786 53.3467 5.37211C53.6016 5.36769 53.8549 5.41425 54.0916 5.50905C54.3283 5.60385 54.5437 5.74499 54.7252 5.92418C54.9066 6.10337 55.0504 6.317 55.1481 6.55253C55.2458 6.78806 55.2955 7.04074 55.2943 7.29573C55.2889 7.80857 55.0813 8.29857 54.7166 8.65914C54.3519 9.01972 53.8595 9.22171 53.3467 9.2212C53.0966 9.22004 52.8492 9.16906 52.619 9.07124C52.3888 8.97342 52.1804 8.83072 52.0059 8.65147C51.8315 8.47222 51.6945 8.26001 51.603 8.02724C51.5114 7.79447 51.4672 7.54579 51.4728 7.29573ZM51.6739 10.7686H55.0453V23.5294H51.6739V10.7686Z" fill="#818898"/>
<path d="M57.0414 17.113C57.0347 16.2541 57.1997 15.4026 57.5268 14.6084C57.8539 13.8142 58.3364 13.0935 58.9461 12.4885C59.5557 11.8834 60.2802 11.4064 61.0768 11.0854C61.8735 10.7644 62.7262 10.6059 63.585 10.6192C64.7592 10.6198 65.915 10.9113 66.9491 11.4676V10.7686H70.2467V22.8046C70.2467 26.1243 67.3733 27.9244 63.7787 27.9244C61.4309 27.9244 59.1827 27.2254 57.7091 26.0801L59.0831 23.7083C60.4835 24.6055 62.1156 25.0741 63.7787 25.0565C66.1007 25.0565 66.8255 24.1343 66.9251 22.6349C65.9249 23.2747 64.7649 23.6204 63.5777 23.6327C59.7562 23.629 57.0414 20.7832 57.0414 17.113ZM66.9491 18.535V15.6892C66.6701 15.0954 66.2289 14.5926 65.6764 14.2389C65.1239 13.8851 64.4827 13.6948 63.8266 13.69C63.3736 13.6856 62.9242 13.7708 62.5043 13.9407C62.0843 14.1105 61.702 14.3618 61.3795 14.6799C61.0569 14.998 60.8004 15.3767 60.6247 15.7942C60.449 16.2118 60.3576 16.66 60.3556 17.113C60.3556 19.0846 61.8532 20.4586 63.8027 20.4586C64.4568 20.4756 65.1019 20.3031 65.6602 19.9618C66.2184 19.6205 66.6661 19.125 66.9491 18.535Z" fill="#818898"/>
<path d="M72.2484 17.113C72.2417 16.2541 72.4067 15.4026 72.7338 14.6084C73.0609 13.8142 73.5434 13.0935 74.1531 12.4885C74.7627 11.8834 75.4872 11.4064 76.2838 11.0854C77.0805 10.7644 77.9333 10.6059 78.7921 10.6192C79.9687 10.6188 81.1271 10.9103 82.1635 11.4676V10.7686H85.4593V22.8046C85.4593 26.1243 82.5877 27.9244 78.9931 27.9244C76.6453 27.9244 74.3971 27.2254 72.9235 26.0801L74.2975 23.7083C75.6978 24.6058 77.3299 25.0744 78.9931 25.0565C81.3151 25.0565 82.0399 24.1343 82.1395 22.6349C81.1391 23.2744 79.9793 23.6201 78.7921 23.6327C74.9706 23.629 72.2484 20.7832 72.2484 17.113ZM82.1635 18.535V15.6892C81.8843 15.0956 81.4431 14.5929 80.8907 14.2392C80.3382 13.8854 79.697 13.6951 79.041 13.69C78.588 13.6856 78.1386 13.7708 77.7187 13.9407C77.2987 14.1105 76.9165 14.3618 76.5939 14.6799C76.2713 14.998 76.0148 15.3767 75.8391 15.7942C75.6634 16.2118 75.572 16.66 75.57 17.113C75.57 19.0846 77.0676 20.4586 79.0171 20.4586C79.6712 20.4754 80.3161 20.3028 80.8744 19.9615C81.4326 19.6202 81.8803 19.1248 82.1635 18.535Z" fill="#818898"/>
<path d="M90.302 10.7688L93.6494 19.284L97.0946 10.7688H100.599L93.2492 28.0002H90.1286L91.973 23.406L86.6078 10.7688H90.302Z" fill="#818898"/>
<path d="M99.9631 10.7686H103.534L106.787 19.3852L110.009 10.7686H113.513L108.393 23.5294H105.035L99.9631 10.7686Z" fill="#818898"/>
<path d="M113.748 17.0613C113.748 13.4667 116.319 10.4937 120.34 10.4937C124.062 10.4937 126.889 13.2915 126.957 16.9672C126.983 17.2833 126.983 17.6009 126.957 17.917H116.895C116.994 19.7152 118.717 20.8882 120.565 20.8882C122.088 20.8882 122.986 20.464 124.036 19.5972L125.86 21.5208C124.384 23.0682 122.909 23.793 120.565 23.793C116.245 23.7801 113.748 20.5581 113.748 17.0613ZM117.068 15.5379H123.512C123.187 14.3409 122.037 13.2915 120.29 13.2915C118.267 13.2915 117.418 14.3151 117.068 15.5379Z" fill="#818898"/>
<path d="M127.654 22.1571L129.287 19.5087C130.752 20.4852 132.469 21.0145 134.229 21.0321C135.904 21.0321 136.752 20.6079 136.752 19.8849C136.752 19.4091 136.352 19.0605 135.504 18.8853L132 18.1365C129.429 17.5832 128.254 16.3642 128.254 14.3668C128.254 12.244 130.052 10.4697 133.774 10.4697C136.02 10.4697 138.016 11.1208 139.392 11.9692L137.868 14.5162C136.745 13.9167 135.248 13.2676 133.672 13.2676C132.251 13.2676 131.426 13.618 131.426 14.2653C131.426 14.6914 131.727 14.9662 132.549 15.1156L135.5 15.6688C138.696 16.2922 139.927 17.716 139.927 19.6397C139.927 22.4061 137.16 23.8594 134.132 23.8594C131.857 23.9034 129.614 23.314 127.654 22.1571Z" fill="#818898"/>
<path d="M140.59 10.7687H142.488V7.24786L145.807 5.10107V10.7687H147.755V13.6661H145.809V23.5313H142.49V13.6661H140.588V10.7687H140.59Z" fill="#818898"/>
<path d="M28.1816 12.8211C28.1262 12.0111 27.9934 11.2082 27.7851 10.4235C26.8352 6.91932 24.8342 4.16207 21.7837 2.19418C19.8622 0.944573 17.6552 0.202772 15.3691 0.0381823C14.4087 -0.0319703 13.4436 -0.00602113 12.4883 0.115643C11.4819 0.24885 10.4927 0.489365 9.53742 0.833081C6.99376 1.75062 4.77376 3.39163 3.15047 5.55427C1.52718 7.71691 0.5714 10.3069 0.400692 13.0056C0.369339 13.5017 0.369339 14.0015 0.369339 14.4994V26.6055C0.369339 26.92 0.494281 27.2217 0.716679 27.4441C0.939077 27.6665 1.24071 27.7914 1.55523 27.7914H6.23241C6.52511 27.7896 6.80698 27.6805 7.02455 27.4846C7.24211 27.2888 7.38025 27.02 7.41277 26.7291C7.44355 26.6154 7.45966 26.4983 7.46072 26.3805V26.1002C7.45796 26.0788 7.45796 26.0571 7.46072 26.0356V26.0043C7.49263 26.0127 7.52266 26.0271 7.54925 26.0467C9.29873 27.0141 11.2363 27.5929 13.2297 27.7435C14.0282 27.8025 14.8302 27.7945 15.6273 27.7195C17.5039 27.5467 19.3251 26.9915 20.9789 26.0881C22.6328 25.1848 24.0841 23.9524 25.2436 22.4669C26.8963 20.3879 27.9076 17.8724 28.1539 15.2279C28.2374 14.4282 28.2466 13.6225 28.1816 12.8211ZM16.7837 20.5562C16.7755 20.5988 16.7525 20.6371 16.7187 20.6645C16.685 20.6918 16.6427 20.7064 16.5993 20.7056H11.9885C11.9451 20.7064 11.9028 20.6918 11.8691 20.6645C11.8353 20.6371 11.8123 20.5988 11.8041 20.5562V20.5267V20.3551C11.8031 20.1435 11.8266 19.9325 11.8742 19.7262C11.9037 19.6561 11.9221 19.5732 11.9516 19.4957C11.9811 19.4182 12.0106 19.3463 12.0402 19.2707C12.0697 19.1951 12.1176 19.1268 12.1582 19.0623L12.2246 18.9627C12.2679 18.8982 12.3154 18.8366 12.3666 18.7783C12.4201 18.7119 12.4736 18.6547 12.5271 18.5938C12.8045 18.3209 13.1417 18.1163 13.5119 17.9963C13.193 17.8226 12.9409 17.5478 12.7954 17.2151C12.6499 16.8824 12.6192 16.5108 12.7082 16.1587C12.7971 15.8067 13.0007 15.4942 13.2868 15.2706C13.5729 15.047 13.9253 14.9249 14.2884 14.9236C14.7219 14.9269 15.137 15.0997 15.4448 15.405C15.6229 15.5843 15.7571 15.8026 15.8367 16.0425C15.9162 16.2825 15.939 16.5376 15.9033 16.7879C15.8675 17.0381 15.7742 17.2767 15.6306 17.4848C15.4871 17.6929 15.2972 17.8648 15.0759 17.987C15.5739 18.1512 16.0073 18.4687 16.3141 18.894C16.6208 19.3193 16.7852 19.8307 16.7837 20.3551C16.7837 20.4215 16.7837 20.4935 16.7837 20.5562ZM24.7327 10.512H3.86247C3.82335 10.5118 3.78485 10.5022 3.75014 10.4842C3.71543 10.4661 3.6855 10.4401 3.66282 10.4082C3.64013 10.3764 3.62533 10.3396 3.61964 10.3009C3.61395 10.2621 3.61753 10.2226 3.63009 10.1856C4.40882 7.97869 5.85292 6.06766 7.76333 4.71592C9.67374 3.36417 11.9564 2.63827 14.2967 2.63827C16.6369 2.63827 18.9196 3.36417 20.83 4.71592C22.7404 6.06766 24.1845 7.97869 24.9633 10.1856C24.9758 10.2225 24.9794 10.2618 24.9738 10.3004C24.9682 10.339 24.9536 10.3757 24.9311 10.4075C24.9086 10.4393 24.8789 10.4654 24.8444 10.4836C24.81 10.5017 24.7717 10.5115 24.7327 10.512Z" fill="#818898"/>
</g>
<defs>
<clipPath id="clip0_1_22851">
<rect width="147.386" height="28" fill="white" transform="translate(0.368561)"/>
</clipPath>
</defs>
</svg>
