<svg
    width="109"
    height="28"
    viewBox="0 0 109 28"
    fill="none"
    xmlns="http://www.w3.org/2000/svg"
>
<g clip-path="url(#clip0_1_22887)">
<path
            d="M9.87729 9.06006C9.84301 12.2315 8.23729 15.0172 5.81158 16.7429C4.24301 17.8715 2.31729 18.5401 0.24872 18.5401H0.143005V14.9458H0.214434C3.49443 14.9115 6.13443 12.3029 6.20586 9.06006H9.87729Z"
            fill="#818898"
        />
<path d="M9.44764 14.9458H0.676208V18.5772H9.44764V14.9458Z" fill="#818898" />
<path d="M10.0576 0H1.46332V3.63143H10.0576V0Z" fill="#818898" />
<path
            d="M18.8639 9.30571V9.23429C18.7925 4.12286 14.6211 0 9.44965 0V3.63143C12.6239 3.63143 15.2268 6.16857 15.2268 9.30571C15.1925 12.4086 12.6239 14.9457 9.44965 14.9457V18.5771C14.5839 18.5771 18.8268 14.4543 18.8639 9.30571Z"
            fill="#818898"
        />
<path
            d="M18.8616 24.18H15.1902C15.0131 21.0429 12.3731 18.5743 9.16449 18.5743V14.9429C14.4073 14.9429 18.6502 19.0657 18.8645 24.1772L18.8616 24.18Z"
            fill="#818898"
        />
<path
            d="M9.87729 24.1799H6.20586C6.02872 21.077 3.42586 18.6113 0.285863 18.5399H0.143005V14.9084H0.214434C2.28301 14.9427 4.20872 15.577 5.77729 16.7056C8.16586 18.397 9.73443 21.1113 9.87729 24.177V24.1799Z"
            fill="#818898"
        />
<path
            d="M57.7315 18.8572C57.7687 20.02 58.7287 20.76 60.4772 20.76C62.2258 20.76 63.2572 20.0543 63.2572 19.2086C63.2572 18.4343 62.8658 17.8686 61.4744 17.5515L58.6944 16.9172C55.9144 16.2829 54.5572 15.0143 54.5572 12.5458C54.5572 9.54861 57.1258 7.75146 60.6915 7.75146C64.2572 7.75146 66.503 9.72575 66.5401 12.7229H62.903C62.8658 11.42 61.9401 10.7829 60.443 10.7829C58.9458 10.7829 58.1258 11.2772 58.1258 12.4058C58.1258 13.2858 58.803 13.8143 60.123 14.1343L62.903 14.7686C65.5058 15.3686 66.8258 16.5315 66.8258 18.8915C66.8258 21.9943 64.1515 23.8972 60.3372 23.8972C56.523 23.8972 54.0258 21.8515 54.0258 18.8572H57.7344H57.7315Z"
            fill="#818898"
        />
<path
            d="M68.6431 3.87702C68.6431 2.60844 69.6774 1.61987 70.9974 1.61987C72.246 1.61987 73.2803 2.60559 73.2803 3.87702C73.2803 5.14844 72.246 6.16844 70.9974 6.16844C69.6774 6.16844 68.6431 5.14559 68.6431 3.87702ZM69.0717 8.2113H72.886V23.5084H69.0717V8.21416V8.2113Z"
            fill="#818898"
        />
<path
            d="M83.5121 7.75439C88.2892 7.75439 91.7835 11.0315 91.7835 15.7915C91.7835 20.5515 88.3235 23.8287 83.5121 23.8287C78.7007 23.8287 75.2407 20.5515 75.2407 15.7915C75.2407 11.0315 78.735 7.75439 83.5121 7.75439ZM83.5121 20.4801C86.1492 20.4801 87.9692 18.5773 87.9692 15.7915C87.9692 13.0058 86.1492 11.103 83.5121 11.103C80.875 11.103 79.0549 13.0058 79.0549 15.7915C79.0549 18.5773 80.9092 20.4801 83.5121 20.4801Z"
            fill="#818898"
        />
<path
            d="M37.0155 8.21436L33.5212 16.4629L30.7041 23.4772H26.7812L20.6469 8.21436H24.7126L27.1383 14.4886L27.3869 15.1572L28.8126 18.7172L33.0555 8.21436H37.0126H37.0155Z"
            fill="#818898"
        />
<path
            d="M54.3085 8.21436H50.3514L46.1428 18.7172L44.7171 15.1572L44.4314 14.4886L42.0428 8.21436H37.9771L44.0743 23.4429L42.3971 27.9544H46.32L48.2085 22.9144L50.8114 16.4629L54.3057 8.21436H54.3085Z"
            fill="#818898"
        />
<path
            d="M104.943 7.96568C104.337 7.78854 103.694 7.71997 102.946 7.71997C102.697 7.71997 102.483 7.71997 102.231 7.75426H102.126C100.2 7.89426 98.88 8.63426 97.9886 9.5514V8.17711H94.1371V23.4743H97.9514V15.26C97.9514 12.7914 99.3771 11.1714 101.731 11.1714C103.691 11.1714 104.977 12.4057 104.977 14.9771V23.5085H108.791V14.0971C108.829 10.8543 107.509 8.66854 104.94 7.96283L104.943 7.96568Z"
            fill="#818898"
        />
</g>
<defs>
<clipPath id="clip0_1_22887">
<rect
                width="108.857"
                height="28"
                fill="white"
                transform="translate(0.142883)"
            />
</clipPath>
</defs>
</svg>
