<svg width="129" height="24" viewBox="0 0 129 24" fill="none" xmlns="http://www.w3.org/2000/svg">
<g clip-path="url(#clip0_1_22901)">
<path d="M20.5121 21.4774C15.0957 25.5421 7.29516 24.5939 3.0891 19.3596C-1.11688 14.1253 -0.135677 6.58714 5.28063 2.52251C10.6971 -1.54205 18.4975 -0.593924 22.7035 4.64036C26.9096 9.87463 25.9284 17.4128 20.5121 21.4774Z" fill="#818898"/>
<path d="M10.6885 21.3262L18.6691 15.9248C19.6249 15.2786 20.2173 14.3198 20.4026 13.2943C20.5916 12.2653 20.3735 11.1696 19.7049 10.2459C18.68 8.83063 16.8883 8.2371 15.2494 8.62337C14.8242 8.72518 14.4099 8.89024 14.021 9.12561C13.9556 9.16425 13.8938 9.20288 13.8284 9.245L10.7575 11.3241C10.7539 11.3276 10.7539 11.3311 10.7539 11.3346C10.7066 11.4997 10.6086 11.6507 10.4559 11.756C10.4522 11.7631 10.4414 11.7666 10.4341 11.7736C10.0851 12.0125 9.60549 11.9457 9.33654 11.6296C9.32924 11.6191 9.32204 11.612 9.31474 11.605C9.30745 11.5945 9.30385 11.5874 9.29656 11.5804C9.28927 11.5698 9.28566 11.5628 9.27837 11.5523C9.27477 11.5452 9.26747 11.5347 9.26387 11.5276C9.04579 11.1764 9.14754 10.7164 9.49645 10.481C9.65997 10.3686 9.84897 10.3265 10.0343 10.3406L15.104 6.90936V2.67407L7.11961 8.07552C6.16741 8.72169 5.5751 9.68051 5.38611 10.7059C5.19711 11.735 5.41519 12.8307 6.08385 13.7543C7.11231 15.1696 8.90398 15.7632 10.543 15.3769C10.9682 15.2751 11.3825 15.11 11.7678 14.8747C11.8332 14.836 11.8986 14.7974 11.9604 14.7553L15.0349 12.6761C15.0349 12.6727 15.0349 12.6691 15.0385 12.6656C15.0821 12.5005 15.1838 12.353 15.3329 12.2442C15.3401 12.2371 15.3474 12.2337 15.3546 12.2266C15.7072 11.9878 16.1869 12.0545 16.4522 12.3706C16.4595 12.3812 16.4667 12.3882 16.474 12.3952C16.4813 12.4058 16.4849 12.4128 16.4922 12.4199C16.4994 12.4304 16.503 12.4374 16.5103 12.448C16.5176 12.455 16.5212 12.4656 16.5285 12.4726C16.7429 12.8238 16.6449 13.2804 16.2923 13.5192C16.1288 13.6281 15.9398 13.6737 15.7581 13.6597L10.6885 17.0908V21.3262Z" fill="#D2D2D2"/>
<path d="M37.6845 11.4913L35.1416 10.9116C33.9329 10.6334 33.3453 10.1405 33.3453 9.40473C33.3453 8.41004 34.1414 7.81618 35.4749 7.81618C36.7797 7.81618 37.5758 8.51363 37.6044 9.68182L37.6054 9.72134H41.0029L41.0025 9.68044C40.9739 7.0141 38.81 5.22266 35.6179 5.22266C33.9811 5.22266 32.5816 5.61815 31.571 6.36654C30.5275 7.13915 29.9759 8.23752 29.9759 9.54283C29.9759 11.6913 31.1492 12.9041 33.7798 13.4754L36.3228 14.0553C37.4414 14.3009 37.9187 14.7268 37.9187 15.4792C37.9187 16.4739 36.9945 17.0677 35.4465 17.0677C33.9089 17.0677 32.974 16.36 32.9453 15.1745L32.9443 15.135H29.5472V15.1755C29.5472 16.511 30.0897 17.6473 31.1161 18.4614C32.1514 19.2825 33.6092 19.7165 35.3321 19.7165C37.0712 19.7165 38.5546 19.2982 39.6218 18.5071C40.712 17.6989 41.2883 16.5564 41.2883 15.2031C41.2883 13.1874 40.1768 12.0427 37.6845 11.4913Z" fill="#818898"/>
<path d="M50.1385 6.48947C48.4034 6.48947 46.8757 7.19437 46.0205 8.38175V2.82422H42.7388V19.3589H45.9946V12.5347C45.9946 10.6058 47.2231 9.35927 49.1244 9.35927C50.7997 9.35927 51.7605 10.4709 51.7605 12.4091V19.3589H55.016V11.6805C55.016 10.0498 54.5992 8.76858 53.777 7.87237C52.9352 6.95478 51.7111 6.48947 50.1385 6.48947Z" fill="#818898"/>
<path d="M65.5826 13.415C65.5826 15.7376 64.6269 16.8668 62.6607 16.8668C60.8269 16.8668 59.9729 15.8258 59.9729 13.5909V6.86719H56.7171V14.6711C56.7171 17.7645 58.5363 19.6862 61.4649 19.6862C63.1391 19.6862 64.7831 18.9213 65.598 17.7729L65.822 19.3596H68.8384V6.86719H65.5826V13.415Z" fill="#818898"/>
<path d="M93.0757 2.82422H89.8461V19.3589H93.0757V2.82422Z" fill="#818898"/>
<path d="M116.126 6.73828L116.036 6.73836C114.366 6.73836 113.038 7.42674 112.449 8.58796L112.278 6.89177H109.208V19.3591H112.464V13.2887C112.464 10.9979 113.77 9.73646 116.14 9.73646H117.352V6.82171L117.316 6.81676C116.735 6.73763 116.507 6.73852 116.126 6.73828Z" fill="#818898"/>
<path d="M125.195 12.1945L122.881 11.6669C121.783 11.4143 121.249 10.967 121.249 10.2993C121.249 9.38304 121.954 8.85754 123.183 8.85754C124.368 8.85754 125.091 9.49084 125.117 10.5515L125.118 10.5911H128.217V10.5502C128.191 8.12179 126.22 6.49023 123.313 6.49023C121.823 6.49023 120.549 6.85042 119.628 7.53183C118.678 8.23551 118.176 9.23603 118.176 10.425C118.176 12.382 119.244 13.4868 121.64 14.007L123.954 14.5347C124.97 14.7578 125.403 15.1442 125.403 15.8268C125.403 16.7297 124.563 17.2687 123.157 17.2687C121.76 17.2687 120.911 16.626 120.885 15.5495L120.884 15.51H117.786V15.5505C117.786 16.7668 118.28 17.8018 119.215 18.5433C120.157 19.291 121.485 19.6862 123.053 19.6862C124.637 19.6862 125.987 19.3054 126.959 18.5849C127.952 17.8488 128.477 16.8081 128.477 15.5756C128.477 13.7393 127.465 12.6966 125.195 12.1945Z" fill="#818898"/>
<path d="M104.618 15.2877C104.259 16.4518 103.119 17.0928 101.408 17.0928C99.3353 17.0928 98.1616 16.0128 97.9191 13.8825L107.586 13.8573V12.8873C107.586 9.00123 105.1 6.49023 101.252 6.49023C97.462 6.49023 94.8148 9.21376 94.8148 13.1133C94.8148 16.9833 97.5048 19.6862 101.356 19.6862C104.737 19.6862 107.085 18.0491 107.637 15.3069L107.647 15.2587H104.627L104.618 15.2877ZM104.341 11.5884H98.0536C98.4311 9.94968 99.5451 9.08384 101.278 9.08384C103.037 9.08376 104.207 10.0421 104.341 11.5884Z" fill="#818898"/>
<path d="M85.1354 15.7503V9.5092H87.6516V6.86554H85.1556V2.99634H81.9001V6.86554H79.4302V9.5092H81.9177V16.2864C81.9177 18.181 83.2457 19.3579 85.3835 19.3579H87.8872V16.642H86.2757C85.5403 16.642 85.1354 16.3253 85.1354 15.7503Z" fill="#818898"/>
<path d="M75.9268 15.7501V9.50895H78.4385V6.86529H75.9426V2.99609H72.6871V6.86529H70.2172V9.50895H72.7065V16.2862C72.7065 18.1808 74.0355 19.3577 76.1749 19.3577H78.6785V16.6418H77.0671C76.3318 16.6418 75.9268 16.3251 75.9268 15.7501Z" fill="#818898"/>
</g>
<defs>
<clipPath id="clip0_1_22901">
<rect width="128" height="24" fill="white" transform="translate(0.47821)"/>
</clipPath>
</defs>
</svg>
